# xmcd CD database file
#
# Track frame offsets:
#	150
#	14987
#	30862
#	45310
#	59167
#	71722
#	83987
#	97212
#	116475
#	128697
#	142235
#	156110
#
# Disc length: 2232 seconds
#
# Revision: 1
# Processed by: cddbd v1.5.2PL0 Copyright (c) Steve Scherf et al.
# Submitted via: CDex 1.51
#
DISCID=ad08b60c
DTITLE=Dr. John - Desitively Bonnaroo
DYEAR=1974
DGENRE=Blues
TTITLE0=Quitters Never Win
TTITLE1=Stealin'
TTITLE2=What Comes Around (Goes Around)
TTITLE3=Me - You =Loneliness
TTITLE4=Mos' Scoious
TTITLE5=(Everybody Wanna Get Rich) Rite Away
TTITLE6=Let's Make A Better World
TTITLE7=R U 4 Real
TTITLE8=Sing Along Song
TTITLE9=Cant Git Enuff
TTITLE10=Go Tell The People
TTITLE11=Desitively Bonnaroo
EXTD=YEAR: 1974
EXTT0=
EXTT1=
EXTT2=
EXTT3=
EXTT4=
EXTT5=
EXTT6=
EXTT7=
EXTT8=
EXTT9=
EXTT10=
EXTT11=
PLAYORDER=
